<svg xmlns="http://www.w3.org/2000/svg" xmlns:xlink="http://www.w3.org/1999/xlink" width="308" zoomAndPan="magnify" viewBox="0 0 230.87999 159.000002" height="212" preserveAspectRatio="xMidYMid meet" version="1.0"><defs><clipPath id="ee77ca57b0"><path d="M 201.035156 129.785156 L 216.105469 129.785156 L 216.105469 140.988281 L 201.035156 140.988281 Z M 201.035156 129.785156 " clip-rule="nonzero"/></clipPath><clipPath id="4e161645dd"><path d="M 206.890625 129.832031 C 215.015625 133.410156 215.609375 134.082031 215.832031 135.050781 C 216.058594 136.242188 215.757812 138.328125 215.015625 139.300781 C 214.195312 140.269531 212.257812 140.9375 211.0625 140.9375 C 210.019531 140.9375 209.050781 140.417969 208.378906 139.820312 C 207.636719 139.148438 207.039062 138.179688 206.964844 137.210938 C 206.816406 136.019531 207.335938 134.007812 208.230469 133.113281 C 209.125 132.21875 211.0625 131.621094 212.332031 131.921875 C 213.597656 132.144531 215.089844 133.558594 215.683594 134.601562 C 216.132812 135.496094 216.132812 136.617188 215.90625 137.511719 C 215.683594 138.40625 215.089844 139.449219 214.269531 139.96875 C 213.300781 140.640625 211.660156 140.9375 210.09375 140.789062 C 208.007812 140.566406 204.578125 139.148438 203.089844 137.957031 C 202.046875 137.210938 201.375 136.464844 201.152344 135.421875 C 200.851562 134.230469 201.375 132.21875 201.972656 131.324219 C 202.417969 130.652344 203.015625 130.207031 203.683594 129.984375 C 204.578125 129.683594 206.890625 129.832031 206.890625 129.832031 " clip-rule="nonzero"/></clipPath><clipPath id="d8b24f18f3"><path d="M 0.660156 2 L 229 2 L 229 156 L 0.660156 156 Z M 0.660156 2 " clip-rule="nonzero"/></clipPath></defs><g clip-path="url(#ee77ca57b0)"><g clip-path="url(#4e161645dd)"><path fill="#e7191f" d="M 198.167969 126.851562 L 218.972656 126.851562 L 218.972656 143.917969 L 198.167969 143.917969 Z M 198.167969 126.851562 " fill-opacity="1" fill-rule="nonzero"/></g></g><g clip-path="url(#d8b24f18f3)"><path fill="#f44336" d="M 210.675781 100.558594 C 218.847656 92.335938 226.027344 95.019531 226.632812 106.699219 L 228.714844 145.894531 C 228.992188 151.703125 224.546875 156.144531 218.792969 155.816406 L 179.53125 153.730469 C 167.90625 153.128906 165.164062 146.003906 173.390625 137.726562 L 184.574219 126.597656 L 125.023438 67.0625 L 95.25 96.777344 C 91.136719 100.886719 84.449219 100.886719 80.335938 96.777344 L 2.195312 18.714844 C 0.167969 16.683594 0.113281 13.285156 2.195312 11.203125 L 9.601562 3.804688 C 11.738281 1.664062 15.027344 1.773438 17.113281 3.804688 L 87.792969 74.519531 L 117.566406 44.699219 C 121.679688 40.640625 128.371094 40.640625 132.429688 44.699219 L 199.433594 111.742188 Z M 210.675781 100.558594 " fill-opacity="1" fill-rule="evenodd"/></g></svg>