<svg xmlns="http://www.w3.org/2000/svg" xmlns:xlink="http://www.w3.org/1999/xlink" width="308" zoomAndPan="magnify" viewBox="0 0 230.87999 159.000002" height="212" preserveAspectRatio="xMidYMid meet" version="1.0"><defs><clipPath id="627c6d4e44"><path d="M 192.929688 19.355469 L 218.503906 19.355469 L 218.503906 31.472656 L 192.929688 31.472656 Z M 192.929688 19.355469 " clip-rule="nonzero"/></clipPath><clipPath id="1d78dbbe10"><path d="M 198.167969 19.378906 C 217.847656 24.148438 218.144531 24.96875 218.292969 25.863281 C 218.515625 26.832031 218.367188 27.949219 217.996094 28.769531 C 217.546875 29.664062 216.726562 30.484375 215.90625 30.929688 C 215.089844 31.304688 213.96875 31.601562 213 31.378906 C 211.882812 31.078125 210.167969 29.886719 209.648438 28.695312 C 209.125 27.578125 209.273438 25.488281 209.945312 24.445312 C 210.542969 23.328125 212.332031 22.285156 213.597656 22.210938 C 214.863281 22.210938 216.726562 23.179688 217.472656 24.074219 C 218.144531 24.820312 218.515625 25.863281 218.441406 26.90625 C 218.292969 28.097656 217.324219 29.886719 216.355469 30.632812 C 215.609375 31.230469 214.640625 31.378906 213.523438 31.378906 C 212.03125 31.527344 210.394531 31.003906 208.230469 30.632812 C 205.175781 30.109375 199.136719 29.289062 196.679688 28.320312 C 195.410156 27.800781 194.519531 27.351562 193.921875 26.683594 C 193.398438 26.160156 193.101562 25.488281 192.953125 24.746094 C 192.878906 23.851562 193.101562 22.359375 193.472656 21.539062 C 193.847656 20.867188 194.367188 20.347656 195.039062 19.972656 C 195.859375 19.527344 198.167969 19.378906 198.167969 19.378906 " clip-rule="nonzero"/></clipPath><clipPath id="e3d465b85b"><path d="M 0.660156 2 L 229 2 L 229 156 L 0.660156 156 Z M 0.660156 2 " clip-rule="nonzero"/></clipPath></defs><g clip-path="url(#627c6d4e44)"><g clip-path="url(#1d78dbbe10)"><path fill="#e7191f" d="M 189.972656 16.398438 L 221.394531 16.398438 L 221.394531 34.433594 L 189.972656 34.433594 Z M 189.972656 16.398438 " fill-opacity="1" fill-rule="nonzero"/></g></g><g clip-path="url(#e3d465b85b)"><path fill="#4caf50" d="M 210.675781 57.582031 C 218.847656 65.75 226.027344 63.007812 226.632812 51.441406 L 228.714844 12.191406 C 228.992188 6.378906 224.546875 1.992188 218.792969 2.269531 L 179.53125 4.351562 C 167.90625 4.898438 165.164062 12.136719 173.390625 20.304688 L 184.574219 31.488281 L 125.023438 91.019531 L 95.25 61.253906 C 91.136719 57.140625 84.449219 57.140625 80.335938 61.253906 L 2.195312 139.425781 C 0.167969 141.398438 0.113281 144.742188 2.195312 146.878906 L 9.601562 154.28125 C 11.738281 156.417969 15.027344 156.308594 17.113281 154.226562 L 87.792969 83.5625 L 117.566406 113.386719 C 121.679688 117.496094 128.371094 117.496094 132.429688 113.386719 L 199.433594 46.398438 Z M 210.675781 57.582031 " fill-opacity="1" fill-rule="evenodd"/></g></svg>